# xmcd
#
# Track frame offsets: 
#        150
#        36680
#        57398
#        84056
#        120954
#        134931
#        147432
#        154462
#        171816
#        193424
#        211576
#        229003
#        256669
#
# Disc length: 3583 seconds
#
# Revision: 0
# Processed by: cddbd v1.5.2PL0 Copyright (c) Steve Scherf et al.
# Submitted via: ExactAudioCopy v0.95b3
#
DISCID=bc0dfd0d
DTITLE=Various  - Monterey Pop Festival 1967 Vol. 5  FLAC
DYEAR=1900
DGENRE=
TTITLE0=The Animals - Paint it black
TTITLE1=The Animals - San Francisco Night
TTITLE2=The Animals \\ Ginhouse Blues
TTITLE3=The Animals - Hey Gyp
TTITLE4=Paul Butterfield Blues Band \\ Marianne
TTITLE5=The Paul Butterfield Blues Band - Look Over Yonder Wall
TTITLE6=Paul Butterfield Blues Band \\ Droppin' Out
TTITLE7=The Paul Butterfield Blues Band - Born In Chicago
TTITLE8=Paul Butterfield Blues Band \\ Driftin Blues
TTITLE9=Paul Butterfield Blues Band \\ One More Heartache
TTITLE10=Lou Rawls - Dead End Street
TTITLE11=Lou Rawls - Tobacco Road
TTITLE12=Johnny Rivers - Memphis
EXTD=
EXTT0=
EXTT1=
EXTT2=
EXTT3=
EXTT4=
EXTT5=
EXTT6=
EXTT7=
EXTT8=
EXTT9=
EXTT10=
EXTT11=
EXTT12=
PLAYORDER=
